PathFileType	4	(X/Y/Z)	Kaydara	
DataRate	CameraRate	NumFrames	NumMarkers	Units	OrigDataRate	OrigDataStartFrame	OrigNumFrames	
60.00	60.00	4	74	mm	60.00	338	201	
Frame#	Time	N_lasi			N_rasi			N_rpsi			N_lpsi			N_fneck			N_bneck			N_fhead			N_rhead			N_lhead			N_rshld			N_relbtop			N_relbext			N_relblow			N_rwrext			N_rwrtop			N_rwrlow			N_lshld			N_lelbext			N_lelblow			N_lelbtop			N_lwrext			N_lwrtop			N_lwrlow			N_rtopleg			N_ltopleg			N_rkneefr			N_rkneebk			N_rkneeis			N_lkneefr			N_lknssbk			N_lkneeis			N_rankfr			N_rankis			N_rankbk			N_lankfr			N_lankbk			N_lankis			D_lasi			D_rasi			D_rpsi			D_lpsi			D_fneck			D_bneck			D_fhead			D_rhead			D_lhead			D_rshld			D_relbtop			D_relbext			D_relblow			D_rwrext			D_rwrtop			D_rwrlow			D_lshld			D_lelbext			D_lelblow			D_lelbtop			D_lwrext			D_lwrtop			D_lwrlow			D_rtopleg			D_ltopleg			D_rkneefr			D_rkneebk			D_rkneeis			D_lkneefr			D_lknssbk			D_lkneeis			D_rankfr			D_rankis			D_rankbk			D_lankfr			D_lankbk			D_lankis			
		X1	Y1	Z1	X2	Y2	Z2	X3	Y3	Z3	X4	Y4	Z4	X5	Y5	Z5	X6	Y6	Z6	X7	Y7	Z7	X8	Y8	Z8	X9	Y9	Z9	X10	Y10	Z10	X11	Y11	Z11	X12	Y12	Z12	X13	Y13	Z13	X14	Y14	Z14	X15	Y15	Z15	X16	Y16	Z16	X17	Y17	Z17	X18	Y18	Z18	X19	Y19	Z19	X20	Y20	Z20	X21	Y21	Z21	X22	Y22	Z22	X23	Y23	Z23	X24	Y24	Z24	X25	Y25	Z25	X26	Y26	Z26	X27	Y27	Z27	X28	Y28	Z28	X29	Y29	Z29	X30	Y30	Z30	X31	Y31	Z31	X32	Y32	Z32	X33	Y33	Z33	X34	Y34	Z34	X35	Y35	Z35	X36	Y36	Z36	X37	Y37	Z37	X38	Y38	Z38	X39	Y39	Z39	X40	Y40	Z40	X41	Y41	Z41	X42	Y42	Z42	X43	Y43	Z43	X44	Y44	Z44	X45	Y45	Z45	X46	Y46	Z46	X47	Y47	Z47	X48	Y48	Z48	X49	Y49	Z49	X50	Y50	Z50	X51	Y51	Z51	X52	Y52	Z52	X53	Y53	Z53	X54	Y54	Z54	X55	Y55	Z55	X56	Y56	Z56	X57	Y57	Z57	X58	Y58	Z58	X59	Y59	Z59	X60	Y60	Z60	X61	Y61	Z61	X62	Y62	Z62	X63	Y63	Z63	X64	Y64	Z64	X65	Y65	Z65	X66	Y66	Z66	X67	Y67	Z67	X68	Y68	Z68	X69	Y69	Z69	X70	Y70	Z70	X71	Y71	Z71	X72	Y72	Z72	X73	Y73	Z73	X74	Y74	Z74	

151	5.617	-838.14407	1085.45937	1161.30844	-1027.78809	1103.01270	1331.58905	-1234.53629	1177.78519	1148.42239	-980.17990	1161.98708	911.25267	-1060.69237	1529.69315	1029.05563	-1012.60941	1628.53500	1127.89291	-773.71490	1659.57504	1212.19238	-966.08788	1727.16568	1210.91125	-877.13982	1701.27777	1082.65770	-1165.33897	1489.31427	1324.63150	-1312.51297	1196.80481	1367.76794	-1343.37158	1155.57861	1351.34659	-1229.99428	1194.84268	1400.89508	-1248.57445	896.80496	1451.24725	-1200.69336	904.92386	1450.66879	-1188.04344	903.19199	1403.37189	-887.52647	1475.81299	907.46452	-944.50325	1138.45383	889.74174	-845.81741	1145.86868	852.80121	-919.82559	1153.98743	807.05650	-877.16202	850.75821	826.53343	-846.06819	841.09016	862.01218	-884.20990	847.45255	896.77414	-1196.02150	961.46713	1288.84323	-901.05202	998.51608	917.64847	-1161.38878	497.54704	1200.42786	-1251.79276	533.55682	1097.89673	-1105.77797	501.45889	1080.42099	-795.35950	536.25580	1202.19162	-856.76018	531.73382	1080.99304	-943.41438	523.89771	1191.85654	-1294.03732	124.58563	1103.74550	-1221.66367	125.05614	1067.99545	-1282.86224	121.86974	1006.32751	-816.24298	179.86740	1224.02054	-862.82730	163.97768	1157.86209	-890.67459	179.99506	1242.92892	-274.92102	1055.33188	-258.93589	-189.28493	1085.75089	-532.43122	-6.54230	1165.21439	-415.38425	-77.64155	1139.25705	-212.35645	-247.64248	1557.44965	-352.81658	-127.77571	1628.77380	-338.62953	-358.35594	1729.35883	-319.78998	-206.55277	1765.04974	-417.72190	-190.54066	1747.88803	-264.25165	-122.74843	1513.43048	-551.50940	11.22464	1206.15128	-589.78851	-43.66839	1179.74342	-544.42444	-53.39792	1213.96996	-648.28384	20.87120	970.52757	-685.94864	-33.61792	963.13011	-704.37408	-49.12879	959.59152	-652.80228	-172.94926	1504.78027	-124.41056	-221.25837	1183.92563	-143.79677	-249.40279	1223.80104	-58.96828	-194.15936	1163.04810	-66.14221	-421.50490	1044.50157	-117.78997	-442.17667	1081.43631	-131.89090	-423.09196	1089.70627	-179.06118	-96.77995	1036.02280	-571.73668	-158.10638	1009.41757	-175.11105	-346.34632	543.60249	-611.90285	-242.91550	565.48637	-638.98705	-251.35519	525.85407	-522.12696	-199.29260	477.19723	-372.89551	-111.49431	497.95021	-297.86051	-116.06458	488.69175	-430.38193	-237.23736	208.60683	-671.56845	-209.39238	204.09960	-608.36750	-156.83932	219.31343	-672.85675	-83.52522	150.98326	-404.17206	-26.60676	147.17587	-353.47370	-27.60874	164.82944	-438.26229 
152	5.633	-824.96941	1081.55853	1168.17589	-1013.28926	1100.36064	1340.97656	-1222.82806	1174.64951	1160.80597	-971.39252	1158.53371	919.65698	-1048.00987	1526.68686	1038.11295	-999.92706	1625.52872	1136.95023	-759.60724	1656.87149	1217.21474	-952.50801	1724.11041	1219.23424	-865.19493	1698.46878	1089.91211	-1149.29993	1486.90552	1336.48285	-1293.82935	1194.14589	1385.09430	-1324.18228	1153.29475	1367.83859	-1210.29922	1192.93419	1416.55289	-1226.76361	895.81261	1471.32568	-1178.95515	904.01169	1469.25217	-1167.73453	901.76170	1421.67511	-878.64441	1472.16751	914.84283	-937.21786	1134.98505	897.98088	-838.87009	1142.18010	859.31923	-913.50243	1150.54733	814.88647	-871.50024	847.19795	831.86890	-840.50224	837.07443	867.09183	-878.18794	843.90503	903.17749	-1182.76939	960.15648	1300.46005	-889.29604	993.85902	927.31667	-1155.32310	495.56915	1206.78978	-1245.03761	534.40208	1104.54704	-1099.30321	500.53223	1086.63475	-789.60457	534.29588	1211.60217	-852.70538	525.97542	1090.99968	-938.13431	517.70569	1203.52470	-1292.80106	125.87234	1105.36049	-1220.31258	125.91320	1069.25583	-1281.45859	124.02077	1007.72377	-785.00595	182.24073	1248.32634	-833.62114	159.78910	1185.95337	-857.99248	178.52381	1271.33331	-282.67929	1054.40117	-261.82100	-205.01793	1084.02275	-536.65337	-20.41805	1165.38124	-423.70094	-86.01943	1139.14658	-219.05415	-260.90792	1556.16959	-356.28082	-141.10171	1627.96265	-344.15344	-371.51943	1727.82639	-321.46740	-221.50171	1763.97873	-421.93314	-202.86747	1746.95190	-268.76823	-140.21564	1512.67181	-557.15488	-2.91946	1206.66374	-596.67923	-56.88547	1180.02838	-550.12745	-69.37882	1213.31482	-654.01535	6.94496	970.29099	-690.83412	-48.11330	962.01202	-707.45003	-62.38976	958.82683	-654.59274	-181.76142	1504.03900	-128.92622	-231.76352	1183.21014	-146.52236	-258.78048	1223.76724	-61.65016	-203.92061	1162.46010	-69.14908	-432.99213	1046.06613	-117.49200	-453.36849	1082.95441	-131.61352	-434.70001	1090.83847	-179.05687	-113.59833	1034.19128	-578.34259	-165.11171	1009.77684	-179.58786	-365.06775	542.58785	-607.37000	-262.25153	561.06621	-639.51286	-267.95631	521.74171	-521.61690	-205.00065	476.05114	-372.86777	-116.29120	498.13335	-299.56909	-122.70932	488.07728	-431.84597	-283.46607	204.12195	-675.25932	-252.06705	196.53196	-614.61735	-202.61856	208.83093	-680.39085	-84.67312	150.91423	-403.85296	-27.31909	148.03574	-353.98628	-29.26205	165.45345	-438.65990 
153	5.650	-811.78604	1077.42836	1175.80803	-998.13263	1098.32344	1350.35507	-1210.59929	1170.81482	1172.49542	-961.84105	1154.50760	927.48764	-1034.99886	1523.37341	1046.61110	-986.91605	1622.21527	1145.44838	-745.62332	1654.25262	1222.13242	-938.32481	1720.91476	1226.85791	-853.06870	1695.50095	1096.07849	-1132.77519	1484.34189	1347.68768	-1274.71626	1191.58379	1401.59348	-1304.63760	1150.96924	1383.42407	-1190.32303	1190.84496	1431.22452	-1204.44977	894.63509	1489.90280	-1156.94649	903.11226	1486.40198	-1145.47203	899.29710	1438.93677	-868.88573	1468.25974	921.74049	-929.04495	1131.13602	906.44005	-831.14342	1138.03276	866.33209	-906.18378	1146.80557	822.66182	-864.69185	843.53767	837.06406	-833.80707	832.77084	872.44400	-871.35323	839.91859	908.75290	-1168.95813	958.89915	1311.91895	-877.54005	989.20219	936.98479	-1148.57704	493.24192	1213.70308	-1237.48886	534.93935	1111.78741	-1092.27287	499.26048	1093.51685	-782.77992	533.83881	1220.53017	-848.56667	519.92893	1102.88086	-931.54831	512.44095	1217.09595	-1291.91971	127.33408	1106.91307	-1218.92914	126.70694	1070.66895	-1280.41183	126.59482	1009.37599	-756.06750	185.56904	1268.27309	-806.56738	158.15584	1209.49585	-827.71919	179.19004	1295.34637	-292.65316	1053.95042	-263.60905	-220.77049	1081.64856	-540.85068	-34.24217	1163.67332	-432.19948	-94.13774	1139.02725	-226.29362	-274.43577	1554.47922	-359.18037	-154.71457	1626.96548	-349.46552	-384.94873	1726.04721	-323.12553	-236.68165	1762.63657	-426.27525	-215.61178	1745.77957	-273.05841	-157.56921	1511.72165	-562.59548	-17.77087	1206.83334	-603.77899	-70.08278	1180.00107	-555.72079	-85.94154	1212.29073	-659.50584	-8.50548	969.63379	-696.01822	-64.03579	960.62119	-710.79269	-76.23147	957.84775	-656.60408	-191.29139	1502.83066	-133.56528	-241.98792	1182.08733	-149.15549	-267.47206	1222.89131	-63.98112	-213.13732	1161.66214	-72.20477	-443.36483	1046.15059	-116.78116	-463.66302	1083.11279	-131.00282	-445.65125	1090.46448	-178.65540	-130.60627	1032.00127	-585.22137	-172.64622	1010.00076	-183.90078	-382.31750	540.90405	-604.06788	-280.02867	555.70164	-640.41229	-282.20514	516.72607	-522.49840	-210.58615	474.82063	-373.21537	-121.13429	498.48881	-301.22919	-129.23785	487.71099	-433.19382	-328.65246	200.89609	-676.25679	-295.12777	190.72584	-617.07355	-247.78910	199.53455	-685.08492	-86.41501	150.79203	-403.60661	-28.42121	149.16622	-354.22100	-30.83664	166.19781	-439.07970 
154	5.667	-797.78938	1073.36853	1183.55240	-982.08672	1096.37856	1359.66171	-1196.78810	1166.01357	1183.15475	-951.74858	1150.44044	934.33716	-1021.11862	1519.89853	1054.30214	-973.03574	1618.74054	1153.13942	-731.05911	1651.22040	1226.73874	-923.93051	1717.57034	1233.86063	-840.17616	1692.20245	1102.37106	-1115.65025	1481.49094	1358.26630	-1255.11963	1189.53148	1417.98615	-1284.68948	1149.07639	1398.98315	-1170.02319	1189.11171	1445.95001	-1181.74057	893.39951	1506.66901	-1134.50882	901.94992	1501.36246	-1124.06898	897.25433	1453.75198	-858.55469	1464.04709	928.46260	-919.84848	1126.87515	914.92607	-822.25235	1133.58261	873.17337	-897.98203	1142.54295	830.66223	-856.79092	839.29092	842.09412	-826.04843	828.29193	877.73674	-864.00589	835.70580	913.66028	-1154.36745	957.56790	1323.25912	-865.78407	984.54514	946.65306	-1141.84837	490.21263	1221.89072	-1229.30092	534.78325	1119.91722	-1084.59961	497.36565	1101.57471	-774.78462	532.94262	1230.76805	-842.71332	514.89357	1114.68727	-923.27560	508.96767	1231.84891	-1290.51315	128.27303	1108.83324	-1217.71202	127.40869	1072.31949	-1279.15550	129.17831	1011.32858	-730.60486	188.45589	1283.39951	-783.02109	157.38665	1228.31192	-800.41512	180.65315	1315.18951	-301.86331	1052.82364	-266.05844	-236.77526	1078.86948	-544.65065	-48.83113	1163.24341	-440.72823	-103.15948	1138.58932	-233.10871	-288.08157	1552.75497	-362.70645	-168.48732	1625.58212	-354.72664	-398.62247	1724.02176	-324.86462	-252.03051	1760.92880	-430.41538	-228.61822	1744.31061	-277.32006	-174.79954	1510.60715	-567.80132	-33.39434	1206.53854	-610.97099	-85.17103	1179.77806	-561.28532	-103.07195	1210.87753	-664.60701	-25.45686	968.59459	-701.44150	-81.43101	959.16916	-714.42421	-91.81039	956.66740	-659.74838	-201.03838	1501.41571	-138.03543	-251.70612	1180.54588	-151.72117	-276.19778	1221.79977	-66.22331	-221.95492	1160.66078	-75.28800	-452.61417	1044.96780	-115.78527	-473.30723	1081.76468	-129.94812	-455.98412	1088.73306	-177.95189	-147.37460	1029.24942	-591.15376	-180.74991	1009.89334	-188.14905	-398.59043	538.99029	-601.42040	-296.83950	549.49493	-641.04370	-296.42376	510.71728	-522.83569	-215.70253	473.63495	-373.55694	-125.81699	498.82412	-302.73123	-135.44545	487.32872	-434.54517	-372.11517	199.08831	-675.20584	-337.44587	186.36696	-617.01862	-291.92905	191.48441	-686.95526	-86.29915	150.78794	-403.74809	-29.15341	149.92271	-354.50680	-32.31561	166.82850	-439.48418 
